# Blender 3.3.1
# www.blender.org
mtllib solid_objs.mtl
o Cube
v 0.836830 0.836830 -0.898962
v 0.836830 0.898962 -0.836830
v 0.898962 0.836830 -0.836830
v 0.836830 -0.898962 -0.836830
v 0.836830 -0.836830 -0.898962
v 0.898962 -0.836830 -0.836830
v 0.898962 0.836830 0.836830
v 0.836830 0.898962 0.836830
v 0.836830 0.836830 0.898962
v 0.898962 -0.836830 0.836830
v 0.836830 -0.836830 0.898962
v 0.836830 -0.898962 0.836830
v -0.836830 0.836830 -0.898962
v -0.898962 0.836830 -0.836830
v -0.836830 0.898962 -0.836830
v -0.898962 -0.836830 -0.836830
v -0.836830 -0.836830 -0.898962
v -0.836830 -0.898962 -0.836830
v -0.898962 0.836830 0.836830
v -0.836830 0.836830 0.898962
v -0.836830 0.898962 0.836830
v -0.836830 -0.898962 0.836830
v -0.836830 -0.836830 0.898962
v -0.898962 -0.836830 0.836830
v -0.956209 -1.000000 -0.956209
v -0.956209 -1.000000 0.956209
v -1.000000 -0.956209 0.956209
v -1.000000 -0.956209 -0.956209
v 0.956209 -1.000000 -0.956209
v -0.956209 -0.956209 -1.000000
v 0.956209 -0.956209 -1.000000
v 1.000000 0.956209 -0.956209
v 1.000000 -0.956209 -0.956209
v 0.956209 0.956209 -1.000000
v -0.956209 -0.956209 1.000000
v -0.956209 0.956209 1.000000
v -1.000000 0.956209 0.956209
v 0.956209 0.956209 1.000000
v 0.956209 -0.956209 1.000000
v 1.000000 -0.956209 0.956209
v 1.000000 0.956209 0.956209
v -0.956209 0.956209 -1.000000
v -1.000000 0.956209 -0.956209
v 0.956209 1.000000 0.956209
v -0.956209 1.000000 0.956209
v 0.956209 1.000000 -0.956209
v 0.956209 -1.000000 0.956209
v -0.956209 1.000000 -0.956209
vn -0.0000 -1.0000 -0.0000
vn -1.0000 -0.0000 -0.0000
vn -0.0000 -0.0000 1.0000
vn -0.0000 1.0000 -0.0000
vn 1.0000 -0.0000 -0.0000
vn 0.5774 0.5774 -0.5774
vn 0.5774 -0.5774 -0.5774
vn 0.5774 0.5774 0.5774
vn 0.5774 -0.5774 0.5774
vn -0.5774 0.5774 -0.5774
vn -0.5774 -0.5774 -0.5774
vn -0.5774 0.5774 0.5774
vn -0.5774 -0.5774 0.5774
vn -0.7071 -0.7071 -0.0000
vn -0.0000 -0.7071 -0.7071
vn 0.7071 -0.0000 -0.7071
vn -0.7071 -0.0000 0.7071
vn 0.7071 -0.0000 0.7071
vn -0.7071 -0.0000 -0.7071
vn -0.0000 0.7071 0.7071
vn 0.7071 0.7071 -0.0000
vn -0.0000 -0.7071 0.7071
vn -0.7071 0.7071 -0.0000
vn -0.0000 0.7071 -0.7071
vn 0.7071 -0.7071 -0.0000
vn -0.0000 -0.0000 -1.0000
vn 0.6460 -0.7633 -0.0000
vn -0.7633 0.6460 -0.0000
vn -0.0000 -0.7633 0.6460
vn -0.0000 0.6460 -0.7633
vn 0.7633 -0.0000 0.6460
vn -0.6460 -0.0000 -0.7633
vn 0.6460 -0.0000 0.7633
vn -0.7633 -0.0000 -0.6460
vn -0.6460 -0.0000 0.7633
vn 0.7633 -0.0000 -0.6460
vn 0.6460 -0.0000 -0.7633
vn -0.7633 -0.0000 0.6460
vn -0.0000 0.7633 -0.6460
vn -0.0000 -0.6460 0.7633
vn -0.6460 0.7633 -0.0000
vn 0.7633 -0.6460 -0.0000
vn -0.0000 -0.7633 -0.6460
vn -0.0000 0.6460 0.7633
vn 0.6460 0.7633 -0.0000
vn -0.7633 -0.6460 -0.0000
vn -0.0000 0.7633 0.6460
vn -0.0000 -0.6460 -0.7633
vn -0.6460 -0.7633 -0.0000
vn 0.7633 0.6460 -0.0000
vt 0.616361 0.491361
vt 0.633640 0.508639
vt 0.616361 0.508639
vt 0.366361 0.508639
vt 0.383639 0.491361
vt 0.383639 0.508639
vt 0.616361 0.741361
vt 0.633639 0.741361
vt 0.616361 0.758640
vt 0.383639 0.741361
vt 0.383639 0.758640
vt 0.366361 0.741361
vt 0.616361 0.258639
vt 0.616361 0.241361
vt 0.866361 0.508639
vt 0.383639 0.241361
vt 0.383639 0.258639
vt 0.133639 0.508639
vt 0.616361 0.008639
vt 0.616361 0.991361
vt 0.866361 0.741361
vt 0.133639 0.741361
vt 0.383639 0.991361
vt 0.383639 0.008639
vt 0.130474 0.505474
vt 0.130474 0.744526
vt 0.125000 0.744526
vt 0.380474 0.005474
vt 0.125000 0.505474
vt 0.380474 0.244526
vt 0.369526 0.505474
vt 0.130474 0.500000
vt 0.380474 0.255474
vt 0.369526 0.500000
vt 0.380474 0.494526
vt 0.619526 0.500000
vt 0.619526 0.505474
vt 0.375000 0.505474
vt 0.380474 0.505474
vt 0.619526 0.494526
vt 0.380474 0.000000
vt 0.130474 0.750000
vt 0.380474 0.994526
vt 0.619526 0.000000
vt 0.619526 0.994526
vt 0.619526 0.005474
vt 0.619526 0.755474
vt 0.369526 0.750000
vt 0.380474 0.755474
vt 0.375000 0.744526
vt 0.380474 0.744526
vt 0.619526 0.750000
vt 0.619526 0.744526
vt 0.619526 0.250000
vt 0.619526 0.255474
vt 0.619526 0.244526
vt 0.625000 0.755474
vt 0.630474 0.744526
vt 0.625000 0.005474
vt 0.625000 0.994526
vt 0.869526 0.744526
vt 0.625000 0.494526
vt 0.630474 0.505474
vt 0.369526 0.744526
vt 0.625000 0.255474
vt 0.625000 0.244526
vt 0.869526 0.505474
s 0
usemtl Material
f 4/4/1 22/22/1 18/18/1
f 19/19/2 16/16/2 24/24/2
f 9/9/3 23/23/3 11/11/3
f 15/15/4 8/8/4 2/2/4
f 3/3/5 10/10/5 6/6/5
f 34/40/6 46/62/6 32/36/6
f 29/31/7 31/34/7 33/38/7
f 41/52/8 44/57/8 38/47/8
f 40/50/9 39/48/9 47/64/9
f 42/54/10 43/56/10 48/66/10
f 28/29/11 30/32/11 25/25/11
f 37/46/12 36/44/12 45/59/12
f 26/26/13 35/42/13 27/27/13
f 26/26/14 28/29/14 25/25/14
f 25/25/15 31/34/15 29/31/15
f 33/39/16 34/40/16 32/37/16
f 36/44/17 27/28/17 35/41/17
f 39/49/18 41/53/18 38/47/18
f 30/33/19 43/56/19 42/55/19
f 45/60/20 38/47/20 44/57/20
f 44/58/21 32/37/21 46/63/21
f 47/64/22 35/42/22 26/26/22
f 48/66/23 37/46/23 45/59/23
f 46/62/24 42/55/24 48/65/24
f 29/31/25 40/51/25 47/64/25
f 13/13/26 5/5/26 17/17/26
f 22/22/27 25/25/27 18/18/27
f 16/16/28 27/28/28 24/24/28
f 18/18/29 29/31/29 4/4/29
f 5/5/30 30/33/30 17/17/30
f 6/6/31 32/37/31 3/3/31
f 1/1/32 31/35/32 5/5/32
f 20/20/33 35/43/33 23/23/33
f 24/24/34 37/46/34 19/19/34
f 11/11/35 38/47/35 9/9/35
f 7/7/36 40/51/36 10/10/36
f 17/17/37 42/55/37 13/13/37
f 14/14/38 28/30/38 16/16/38
f 21/21/39 44/58/39 8/8/39
f 9/9/40 36/45/40 20/20/40
f 8/8/41 46/63/41 2/2/41
f 3/3/42 41/53/42 7/7/42
f 12/12/43 26/26/43 22/22/43
f 23/23/44 39/49/44 11/11/44
f 15/15/45 45/61/45 21/21/45
f 19/19/46 43/56/46 14/14/46
f 2/2/47 48/67/47 15/15/47
f 13/13/48 34/40/48 1/1/48
f 4/4/49 47/64/49 12/12/49
f 10/10/50 33/39/50 6/6/50
f 4/4/1 12/12/1 22/22/1
f 19/19/2 14/14/2 16/16/2
f 9/9/3 20/20/3 23/23/3
f 15/15/4 21/21/4 8/8/4
f 3/3/5 7/7/5 10/10/5
f 26/26/14 27/27/14 28/29/14
f 25/25/15 30/32/15 31/34/15
f 33/39/16 31/35/16 34/40/16
f 36/44/17 37/46/17 27/28/17
f 39/49/18 40/51/18 41/53/18
f 30/33/19 28/30/19 43/56/19
f 45/60/20 36/45/20 38/47/20
f 44/58/21 41/53/21 32/37/21
f 47/64/22 39/48/22 35/42/22
f 48/66/23 43/56/23 37/46/23
f 46/62/24 34/40/24 42/55/24
f 29/31/25 33/39/25 40/51/25
f 13/13/26 1/1/26 5/5/26
f 22/22/27 26/26/27 25/25/27
f 16/16/28 28/30/28 27/28/28
f 18/18/29 25/25/29 29/31/29
f 5/5/30 31/35/30 30/33/30
f 6/6/31 33/39/31 32/37/31
f 1/1/32 34/40/32 31/35/32
f 20/20/33 36/45/33 35/43/33
f 24/24/34 27/28/34 37/46/34
f 11/11/35 39/49/35 38/47/35
f 7/7/36 41/53/36 40/51/36
f 17/17/37 30/33/37 42/55/37
f 14/14/38 43/56/38 28/30/38
f 21/21/39 45/61/39 44/58/39
f 9/9/40 38/47/40 36/45/40
f 8/8/41 44/58/41 46/63/41
f 3/3/42 32/37/42 41/53/42
f 12/12/43 47/64/43 26/26/43
f 23/23/44 35/43/44 39/49/44
f 15/15/45 48/67/45 45/61/45
f 19/19/46 37/46/46 43/56/46
f 2/2/47 46/63/47 48/67/47
f 13/13/48 42/55/48 34/40/48
f 4/4/49 29/31/49 47/64/49
f 10/10/50 40/51/50 33/39/50
o Pyramid
v -0.798555 -0.952707 0.798555
v -0.741791 -0.859147 0.856379
v -0.856379 -0.859147 0.741791
v -0.000000 0.624436 0.114587
v 0.114587 0.624436 0.000000
v -0.000000 0.624436 -0.114587
v -0.114587 0.624436 0.000000
v -0.856379 -0.859147 -0.741791
v -0.741791 -0.859147 -0.856379
v -0.798555 -0.952707 -0.798555
v 0.856379 -0.859147 0.741791
v 0.741791 -0.859147 0.856379
v 0.798555 -0.952707 0.798555
v 0.741791 -0.859147 -0.856379
v 0.856379 -0.859147 -0.741791
v 0.798555 -0.952707 -0.798555
v -0.911003 -1.000000 -0.911003
v -0.911003 -1.000000 0.911003
v -0.960199 -0.920398 0.862707
v -0.960199 -0.920398 -0.862707
v -0.862707 -0.920398 0.960199
v 0.000000 0.805017 0.097492
v -0.097492 0.805017 0.000000
v 0.911003 -1.000000 -0.911003
v -0.862707 -0.920398 -0.960199
v 0.862707 -0.920398 -0.960199
v 0.911003 -1.000000 0.911003
v 0.960199 -0.920398 -0.862707
v 0.960199 -0.920398 0.862707
v 0.862707 -0.920398 0.960199
v 0.000000 0.805017 -0.097492
v 0.097492 0.805017 0.000000
vn -0.0000 0.4472 0.8944
vn 0.8944 0.4472 -0.0000
vn -0.0000 0.4472 -0.8944
vn -0.8944 0.4472 -0.0000
vn -0.7071 -0.0080 0.7071
vn -0.0000 1.0000 -0.0000
vn -0.7071 -0.0080 -0.7071
vn 0.7071 -0.0080 0.7071
vn 0.7071 -0.0080 -0.7071
vn -0.8507 -0.5257 -0.0000
vn -0.5774 0.5774 0.5774
vn -0.0000 -0.5257 -0.8507
vn 0.8507 -0.5257 -0.0000
vn -0.0000 -0.5257 0.8507
vn -0.5774 0.5774 -0.5774
vn 0.5774 0.5774 -0.5774
vn 0.5774 0.5774 0.5774
vn -0.0000 -1.0000 -0.0000
vn 0.3877 -0.9218 -0.0000
vn -0.5081 0.8613 -0.0000
vn 0.6280 0.0733 0.7747
vn -0.7747 0.0733 -0.6280
vn -0.0000 -0.9218 0.3877
vn -0.0000 0.8613 -0.5081
vn -0.3877 -0.9218 -0.0000
vn 0.5081 0.8613 -0.0000
vn -0.0000 -0.9218 -0.3877
vn -0.0000 0.8613 0.5081
vn 0.6280 0.0733 -0.7747
vn -0.7747 0.0733 0.6280
vn 0.7747 0.0733 0.6280
vn -0.6280 0.0733 -0.7747
vn -0.6280 0.0733 0.7747
vn 0.7747 0.0733 -0.6280
vt 0.139477 0.735522
vt 0.387949 0.984141
vt 0.387949 0.028808
vt 0.593281 0.984141
vt 0.593281 0.734141
vt 0.593281 0.484141
vt 0.593281 0.234141
vt 0.387949 0.234141
vt 0.387949 0.278808
vt 0.139477 0.514477
vt 0.387949 0.734141
vt 0.387949 0.778808
vt 0.360523 0.735523
vt 0.387949 0.484141
vt 0.387949 0.528808
vt 0.360523 0.514477
vt 0.379450 0.241100
vt 0.375000 0.238875
vt 0.136125 0.511125
vt 0.379450 0.013350
vt 0.375000 0.011125
vt 0.136125 0.738875
vt 0.384950 0.022137
vt 0.384950 0.237814
vt 0.389012 0.014012
vt 0.142162 0.750000
vt 0.384950 0.987814
vt 0.604689 0.750000
vt 0.604689 0.229689
vt 0.600627 0.987814
vt 0.600627 0.237814
vt 0.379450 0.513350
vt 0.363875 0.511125
vt 0.142162 0.500000
vt 0.389012 0.250000
vt 0.384950 0.272137
vt 0.357838 0.500000
vt 0.389012 0.514012
vt 0.384950 0.487814
vt 0.379450 0.741100
vt 0.363875 0.738875
vt 0.384950 0.522137
vt 0.384950 0.737814
vt 0.357838 0.750000
vt 0.389012 0.750000
vt 0.384950 0.772137
vt 0.604689 0.250000
vt 0.604689 0.729689
vt 0.600627 0.487814
vt 0.610376 0.242688
vt 0.600627 0.737814
s 0
f 60/79/51 52/71/51 50/69/51
f 63/82/52 53/72/52 59/78/52
f 57/76/53 54/73/53 62/81/53
f 51/70/54 55/74/54 56/75/54
f 66/87/55 69/92/55 67/90/55
f 80/117/56 71/98/56 70/96/56
f 68/91/57 73/102/57 65/84/57
f 77/110/58 78/112/58 75/107/58
f 74/105/59 76/109/59 72/99/59
f 66/88/60 68/91/60 65/85/60
f 70/96/61 67/90/61 69/92/61
f 65/86/62 74/104/62 72/100/62
f 72/100/63 77/110/63 75/108/63
f 75/108/64 69/93/64 66/89/64
f 73/102/65 71/98/65 79/114/65
f 76/109/66 79/115/66 80/118/66
f 78/112/67 80/118/67 70/95/67
f 64/83/68 49/68/68 58/77/68
f 49/68/69 65/86/69 58/77/69
f 51/70/70 68/91/70 67/90/70
f 52/71/71 69/94/71 50/69/71
f 55/74/72 67/90/72 71/98/72
f 58/77/73 72/100/73 64/83/73
f 57/76/74 74/106/74 73/103/74
f 64/83/75 75/108/75 61/80/75
f 63/82/76 77/110/76 76/109/76
f 61/80/77 66/89/77 49/68/77
f 60/79/78 69/94/78 78/113/78
f 54/73/79 73/103/79 79/116/79
f 55/74/80 68/91/80 56/75/80
f 53/72/81 76/109/81 80/118/81
f 54/73/82 74/106/82 62/81/82
f 52/71/83 78/113/83 70/97/83
f 53/72/84 77/110/84 59/78/84
f 80/117/56 79/114/56 71/98/56
f 66/88/60 67/90/60 68/91/60
f 70/96/61 71/98/61 67/90/61
f 65/86/62 73/101/62 74/104/62
f 72/100/63 76/109/63 77/110/63
f 75/108/64 78/111/64 69/93/64
f 73/102/65 68/91/65 71/98/65
f 76/109/66 74/105/66 79/115/66
f 78/112/67 77/110/67 80/118/67
f 64/83/68 61/80/68 49/68/68
f 49/68/69 66/89/69 65/86/69
f 51/70/70 56/75/70 68/91/70
f 52/71/71 70/97/71 69/94/71
f 55/74/72 51/70/72 67/90/72
f 58/77/73 65/86/73 72/100/73
f 57/76/74 62/81/74 74/106/74
f 64/83/75 72/100/75 75/108/75
f 63/82/76 59/78/76 77/110/76
f 61/80/77 75/108/77 66/89/77
f 60/79/78 50/69/78 69/94/78
f 54/73/79 57/76/79 73/103/79
f 55/74/80 71/98/80 68/91/80
f 53/72/81 63/82/81 76/109/81
f 54/73/82 79/116/82 74/106/82
f 52/71/83 60/79/83 78/113/83
f 53/72/84 80/118/84 77/110/84
